<svg width="16" height="16" viewBox="0 0 16 16" fill="none" xmlns="http://www.w3.org/2000/svg">
<path fill-rule="evenodd" clip-rule="evenodd" d="M2.29556 1.33333C2.04045 1.33333 1.79573 1.43471 1.61526 1.61526C1.43478 1.79582 1.33333 2.04077 1.33333 2.29624V13.7033C1.33333 13.9588 1.43478 14.2037 1.61526 14.3843C1.79573 14.5648 2.04045 14.6662 2.29556 14.6662H13.6978C13.9529 14.6662 14.1976 14.5648 14.3781 14.3843C14.5586 14.2037 14.66 13.9588 14.66 13.7033V7.99976C14.66 7.63157 14.9585 7.3331 15.3267 7.3331C15.6949 7.3331 15.9933 7.63157 15.9933 7.99976V13.7033C15.9933 14.3122 15.7515 14.8962 15.3211 15.3269C14.8906 15.7575 14.3067 15.9995 13.6978 15.9995H2.29556C1.68665 15.9995 1.10273 15.7575 0.672253 15.3269C0.241784 14.8962 0 14.3122 0 13.7033V2.29624C0 1.68733 0.241784 1.1033 0.672253 0.672654C1.10273 0.241993 1.68665 0 2.29556 0H11.2544C11.6226 0 11.9211 0.298477 11.9211 0.666667C11.9211 1.03486 11.6226 1.33333 11.2544 1.33333H2.29556Z" fill="#2D3440"/>
</svg>
