<svg width="39" height="38" viewBox="0 0 39 38" fill="none" xmlns="http://www.w3.org/2000/svg">
<rect x="37.8457" y="37" width="36" height="36" rx="18" transform="rotate(180 37.8457 37)" fill="#FCFCFC" fill-opacity="0.3"/>
<path fill-rule="evenodd" clip-rule="evenodd" d="M20.7104 24.1352C20.9701 24.3949 21.3912 24.3949 21.6509 24.1352C21.9106 23.8755 21.9106 23.4545 21.6509 23.1948L17.4496 18.9935L21.6509 14.7922C21.9106 14.5325 21.9106 14.1114 21.6509 13.8517C21.3912 13.592 20.9702 13.592 20.7105 13.8517L16.0418 18.5205C16.0408 18.5214 16.0399 18.5223 16.0389 18.5233C15.7792 18.783 15.7792 19.204 16.0389 19.4637L20.7104 24.1352Z" fill="#FCFCFC"/>
<rect x="37.8457" y="37" width="36" height="36" rx="18" transform="rotate(180 37.8457 37)" stroke="#FCFCFC" stroke-width="2"/>
</svg>
